<?xml version="1.0" encoding="utf-8"?>
<!-- Svg Vector Icons : http://www.onlinewebfonts.com/icon -->
<!DOCTYPE svg PUBLIC "-//W3C//DTD SVG 1.1//EN" "http://www.w3.org/Graphics/SVG/1.1/DTD/svg11.dtd">
<svg version="1.1" xmlns="http://www.w3.org/2000/svg" xmlns:xlink="http://www.w3.org/1999/xlink" x="0px" y="0px" viewBox="0 0 1000 1000" enable-background="new 0 0 1000 1000" fill="#fff" xml:space="preserve">
<metadata> Svg Vector Icons : http://www.onlinewebfonts.com/icon </metadata>
<g><g transform="translate(0.000000,511.000000) scale(0.100000,-0.100000)"><path d="M839.5,3535c-340.8-82.3-624.9-368.3-707.1-715c-43.1-188-43.1-5234,0-5422c84.2-354.6,362.4-632.7,716.9-716.9c109.7-25.5,628.8-29.4,4150.7-29.4s4041.1,3.9,4150.8,29.4c350.6,84.2,632.7,366.3,716.9,716.9c43.1,188,43.1,5234,0,5422c-84.2,354.6-362.4,632.7-716.9,716.9C8968.6,3580.1,1019.7,3578.1,839.5,3535z M8345.7,1482.2c88.1-29.4,160.6-60.7,160.6-72.5c0-21.5-119.5-454.4-127.3-464.2c-3.9-3.9-80.3,17.6-170.4,45c-225.3,72.5-515.2,80.3-636.6,15.7c-105.8-56.8-143-113.6-143-213.5c0-141,94-215.5,460.3-360.4c352.6-139.1,560.2-291.9,654.3-478c101.8-205.7,99.9-485.8-7.8-695.4c-105.8-211.6-348.7-378.1-650.3-444.7c-223.3-49-642.5-29.4-875.6,39.2c-268.3,80.3-252.7,49-182.2,335c33.3,135.2,70.5,244.9,80.3,244.9s72.5-21.5,139.1-49c166.5-66.6,460.3-115.6,597.4-97.9c219.4,27.4,327.1,107.7,344.7,258.6c19.6,158.7-103.8,274.2-411.3,389.8c-383.9,143-611.1,313.4-713,530.8c-43.1,96-50.9,139.1-50.9,280.1c2,233.1,54.9,364.3,211.6,519.1c223.3,221.3,429,286,863.8,276.2C8143.9,1535,8204.6,1527.2,8345.7,1482.2z M5525,1472.4c491.7-125.4,814.9-438.8,916.7-895.2c49-225.3,31.3-648.4-37.2-859.9c-217.4-666-818.8-967.6-1841.3-922.6c-158.7,7.8-329.1,17.6-376.1,25.5l-88.1,11.7V152.1c0,1038.2,5.9,1322.2,25.5,1328.1c74.4,29.4,411.3,45.1,797.2,39.2C5291.9,1515.4,5387.8,1507.6,5525,1472.4z M3323.2,167.8l415.3-1332l-323.2-5.9c-203.7-1.9-327.1,2-335,15.7c-5.9,9.8-54.8,168.5-109.7,352.6l-96,333h-383.9h-383.9l-94-352.6l-94-352.6h-319.3c-246.8,0-317.3,5.9-311.5,25.5c5.9,11.8,182.2,587.6,391.8,1277.2c211.6,689.5,391.8,1283,403.5,1318.3l21.6,62.7l401.6-3.9l401.6-5.9L3323.2,167.8z"/><path d="M4761,1047.3c-33.3-9.8-35.3-68.6-35.3-891.3v-879.5h192c597.4,0,908.9,313.4,912.8,920.7c2,421.1-150.8,679.7-474,805.1c-86.2,33.3-162.6,45-336.9,49C4896.2,1055.1,4778.7,1053.2,4761,1047.3z"/><path d="M2445.7,908.2c-31.3-127.3-203.7-779.6-239-891.3c-9.8-33.3,13.7-35.3,286-35.3c231.1,0,295.8,5.9,287.9,25.5c-27.4,74.5-184.1,607.3-237,812.9l-62.7,242.9L2445.7,908.2z"/></g></g>
</svg>