<?xml version="1.0" encoding="utf-8"?>
<!-- Svg Vector Icons : http://www.onlinewebfonts.com/icon -->
<!DOCTYPE svg PUBLIC "-//W3C//DTD SVG 1.1//EN" "http://www.w3.org/Graphics/SVG/1.1/DTD/svg11.dtd">
<svg version="1.1" xmlns="http://www.w3.org/2000/svg" xmlns:xlink="http://www.w3.org/1999/xlink" x="0px" y="0px" viewBox="0 0 1000 1000" enable-background="new 0 0 1000 1000" fill="#fff" xml:space="preserve">
<metadata> Svg Vector Icons : http://www.onlinewebfonts.com/icon </metadata>
<g><g transform="translate(0.000000,511.000000) scale(0.100000,-0.100000)"><path d="M4823.5,4985.2c-394.7-95.6-681.4-425.9-729.2-839.3c-45.7-407.2,230.6-839.3,623.2-972.2c54-18.7,112.2-56.1,128.8-81c47.8-72.7,2.1-205.7-93.5-274.2c-41.5-31.2-99.7-81-128.8-114.3c-41.5-45.7-106-74.8-270.1-122.6c-276.3-81-509-191.1-739.6-349c-625.3-428-1105.2-1190.4-1234-1965.3C2351.3,97,2343,82.5,2224.6,30.5c-224.4-99.7-232.7-413.4-12.5-523.5c133-68.5,128.8-54,128.8-444.6c0-415.5,2.1-411.3-197.4-434.2c-68.6-8.3-157.9-35.3-201.5-60.2c-116.3-68.6-563-515.2-608.7-608.7c-39.5-76.8-41.6-139.2-47.8-1188.3c-4.2-1092.7-4.2-1107.3,39.5-1209.1c27-64.4,85.2-141.3,147.5-197.3c189-170.4-101.8-157.9,3558.6-151.7l3261.6,6.2l103.9,56.1c122.6,64.4,195.3,139.2,261.7,265.9l49.9,93.5l6.2,1067.8c4.2,932.8,2.1,1082.3-27,1184.1c-31.2,106-58.2,141.3-319.9,398.9c-253.4,253.4-295,288.8-396.8,317.8c-60.2,18.7-141.3,33.3-176.6,33.3c-122.6,0-135,35.3-135,417.5c0,376,4.2,390.6,124.6,450.8c224.4,112.2,220.2,423.8-8.3,525.6c-118.4,51.9-126.7,64.4-157.9,236.8c-66.5,365.6-276.3,866.3-513.1,1223.6c-164.1,249.3-506.9,600.4-727.1,745.8c-207.7,137.1-440.4,251.4-664.8,324.1c-162,51.9-203.6,76.9-292.9,166.2c-58.2,58.2-114.3,105.9-126.7,105.9c-31.2,0-91.4,180.7-76.9,234.7c8.3,37.4,41.5,62.3,130.9,97.6c232.7,93.5,386.4,220.2,513.1,423.8c60.2,93.5,14.6,103.9-133,29.1c-114.3-60.2-151.6-68.6-288.8-68.6c-199.4,2.1-346.9,66.5-488.2,218.1c-151.7,162-189,261.8-189,498.6c0,174.5,6.2,209.8,56.1,301.2c74.8,143.3,195.3,253.4,340.7,311.6c66.5,27,122.5,62.3,122.5,76.9C5280.5,5012.2,5004.2,5028.8,4823.5,4985.2z M3109.6-283.1c22.9-12.5,66.5-66.5,97.6-120.5c56.1-95.6,58.2-106,64.4-475.7c6.2-359.4,6.2-378.1-35.3-419.6c-33.2-33.2-70.6-43.6-162-43.6c-191.1,0-193.2,2.1-193.2,440.4c0,403,14.5,473.6,118.4,583.8C3063.9-254.1,3057.7-256.1,3109.6-283.1z M4044.4-316.4c128.8-110.1,153.7-191.1,162-544.3c12.5-465.4,4.2-482-238.9-482c-238.9,0-234.7-8.3-234.7,434.2c0,409.2,18.7,484.1,143.3,590C3959.3-249.9,3963.4-249.9,4044.4-316.4z M5076.9-301.8c35.3-22.8,91.4-85.2,124.6-141.3c58.2-99.7,58.2-101.8,58.2-469.5c0-446.7,10.4-430-261.8-430c-278.4,0-272.1-12.5-263.8,448.7c6.2,369.8,6.2,376,64.4,463.3c47.8,72.7,162,168.3,201.5,168.3C5006.3-262.4,5039.5-281.1,5076.9-301.8z M6101.1-316.4c128.8-110.1,145.4-172.4,145.4-581.7c0-450.8,4.2-444.6-224.4-444.6c-236.8,0-232.7-8.3-232.7,440.4c0,328.2,4.2,380.2,41.6,450.8c37.4,76.9,149.6,189.1,187,189.1C6028.4-262.4,6065.8-287.3,6101.1-316.4z M7069.2-414c45.7-101.8,49.9-130.9,49.9-486.1c0-367.7-2.1-378.1-45.7-409.3c-24.9-18.7-85.2-33.2-132.9-33.2c-70.6,0-97.6,10.4-133,58.2c-43.6,54-45.7,70.6-37.4,409.3c10.4,373.9,29.1,463.3,124.6,565.1C6954.9-247.8,7004.8-276.9,7069.2-414z M2941.3-1949.2c178.7-101.8,359.4-292.9,413.4-438.3c43.6-114.3,45.7-153.8,45.7-804V-3875l-49.9-58.2l-49.9-58.2h-565.1h-565.1l-49.9,60.3l-51.9,58.2l6.2,710.5c6.2,679.3,8.3,712.6,51.9,808.1c91.4,197.4,299.2,390.6,496.5,463.3C2727.3-1853.7,2795.9-1866.1,2941.3-1949.2z M5239-1943c232.7-108,430-288.8,509-461.2c37.4-85.2,41.5-137.1,41.5-789.4v-698l-54-49.8l-54-49.9l-662.7-6.2c-750-6.2-766.6-4.2-808.1,137.1c-16.6,51.9-20.8,288.8-16.6,720.9c6.2,612.9,8.3,648.2,51.9,743.7c85.2,184.9,307.5,369.8,583.7,486.1C4971-1851.6,5058.2-1857.8,5239-1943z M7457.6-1951.3c160-83.1,328.2-251.4,400.9-403l60.3-120.5l6.2-654.4c6.2-442.5,0-679.3-16.6-731.3c-39.5-135-72.7-141.3-654.4-141.3c-550.5,0-621.2,12.5-644,110.1c-6.2,24.9-10.4,367.7-6.2,762.4c6.2,712.5,6.2,716.7,58.2,820.6c68.6,143.3,224.4,286.7,400.9,373.9C7235.4-1851.6,7270.7-1851.6,7457.6-1951.3z"/></g></g>
</svg>