<?xml version="1.0" encoding="utf-8"?>
<!-- Svg Vector Icons : http://www.onlinewebfonts.com/icon -->
<!DOCTYPE svg PUBLIC "-//W3C//DTD SVG 1.1//EN" "http://www.w3.org/Graphics/SVG/1.1/DTD/svg11.dtd">
<svg version="1.1" xmlns="http://www.w3.org/2000/svg" xmlns:xlink="http://www.w3.org/1999/xlink" x="0px" y="0px" viewBox="0 0 1000 1000" enable-background="new 0 0 1000 1000" fill="#fff" xml:space="preserve">
<metadata> Svg Vector Icons : http://www.onlinewebfonts.com/icon </metadata>
<g><g transform="translate(0.000000,511.000000) scale(0.100000,-0.100000)"><path d="M2374.7,3010.7L377.4,1013.3L647,743.7L916.7,474l1733.5,1733.5L4383.6,3941l1733.5-1733.5L7850.6,474l269.6,269.6l269.6,269.7L6392.6,3010.7C5292.8,4110.5,4389.4,5010,4383.6,5010C4377.9,5010,3474.5,4110.5,2374.7,3010.7z"/><path d="M2875.5,1566.1L1378.9,69.6v-1681.5v-1679.6h2043.6c1982,0,2041.7,1.9,2030.1,36.6c-63.6,202.2-67.4,292.7-67.4,1827.9V98.4h986.2h988.1L5876.4,1581.5c-814.7,816.7-1487,1483.1-1492.7,1483.1C4377.9,3064.6,3699.9,2390.5,2875.5,1566.1z"/><path d="M6001.6-1717.9c0-1323.2-1.9-1302.1,123.3-1564c223.4-466.1,835.9-1032.4,1546.6-1431.1l138.7-77.1l167.6,96.3c523.9,300.5,1042,726.1,1305.9,1070.9c131,173.4,256.2,418,300.5,591.3c36.6,142.5,38.5,213.8,38.5,1332.9v1180.7H7812.1H6001.6V-1717.9z M7812.1-1789.1v-674.1h616.4h616.3v-211.9c0-159.9-9.6-235-34.7-304.3c-109.8-287-491.2-679.9-993.9-1022.8c-96.3-65.5-179.1-117.5-188.8-117.5c-7.7,0-15.4,373.7-15.4,828.2v828.2h-626h-626v674.1v674.1h626h626V-1789.1z"/></g></g>
</svg>