<svg width="288" height="288" viewBox="0 0 288 288" fill="none" xmlns="http://www.w3.org/2000/svg">
<path d="M233.079 35.1648H215.482C212.976 35.1648 210.96 33.12 210.96 30.6432V22.6656C210.96 10.1664 200.794 0 188.266 0H99.85C87.3508 0 77.1844 10.1664 77.1844 22.6656V30.6144C77.1844 33.12 75.1684 35.136 72.6628 35.136H55.066C42.538 35.136 32.4004 45.2736 32.4004 57.8016V74.7936C32.4004 77.2992 34.4164 79.344 36.9508 79.344H251.252C253.757 79.344 255.773 77.328 255.773 74.7936V57.8016C255.773 45.3024 245.607 35.1648 233.079 35.1648ZM192.816 30.6144C192.816 33.12 190.8 35.136 188.295 35.136H99.85C97.3444 35.136 95.3284 33.0912 95.3284 30.6144V22.6656C95.3284 20.16 97.3444 18.144 99.85 18.144H188.295C190.8 18.144 192.816 20.16 192.816 22.6656V30.6144ZM246.701 93.2544H41.4724C36.4612 93.2544 32.8036 97.2864 33.2932 102.269L51.2068 278.957C51.7252 283.91 56.1892 287.971 61.2004 287.971H226.743C231.754 287.971 236.247 283.939 236.736 278.957L254.823 102.269C255.341 97.2864 251.712 93.2544 246.701 93.2544ZM141.898 228.384C141.898 230.89 139.882 232.934 137.376 232.934L114.855 232.906C112.349 232.906 109.008 231.322 107.396 229.421L93.946 213.322C92.3332 211.421 91.7572 207.965 92.7076 205.632L94.4356 201.312C95.3572 198.979 94.2052 196.358 91.9012 195.408L86.9476 193.392C84.6148 192.442 84.7588 191.203 87.2356 190.771L105.466 187.373C107.943 186.912 111.111 188.179 112.58 190.195C115.604 194.342 120.5 201.139 123.524 205.315C124.992 207.36 124.244 208.282 121.911 207.36L117.216 205.459C114.884 204.538 112.752 204.365 112.436 205.142C112.148 205.891 113.213 208.051 114.826 209.981L115.92 211.277C117.533 213.206 120.874 214.762 123.351 214.762L137.405 214.79C139.911 214.79 141.956 216.806 141.927 219.312L141.898 228.384ZM145.21 168.71L149.674 166.32C151.892 165.11 153.332 163.584 152.957 162.864C152.583 162.144 150.25 161.568 147.744 161.568H146.016C143.511 161.568 140.199 163.152 138.586 165.053L129.572 175.853C127.959 177.782 125.108 178.042 123.178 176.429L116.237 170.611C114.308 168.998 114.048 166.147 115.661 164.218L130.148 146.938C131.76 145.008 135.101 143.482 137.578 143.482H158.573C161.079 143.482 164.074 145.267 165.284 147.456L167.472 151.546C168.682 153.734 171.418 154.57 173.636 153.389C175.133 152.582 176.832 151.661 178.359 150.854C180.576 149.674 181.383 150.566 180.173 152.755L171.072 168.912C169.863 171.101 166.81 172.714 164.333 172.57C159.207 172.224 150.855 171.648 145.757 171.245C143.252 171.043 142.992 169.891 145.21 168.71ZM196.964 212.63L185.789 230.371C184.436 232.502 181.354 234.058 178.848 233.914L174.212 233.597C171.677 233.453 169.546 235.325 169.373 237.83C169.258 239.53 169.114 241.488 168.97 243.187C168.768 245.693 167.588 245.894 166.378 243.706L157.508 227.376C156.327 225.158 156.557 221.76 158.026 219.715C161.05 215.568 165.975 208.829 169.056 204.682C170.525 202.666 171.648 203.098 171.476 205.574L171.13 210.643C170.957 213.149 171.476 215.222 172.282 215.28C173.088 215.338 174.816 213.667 176.17 211.536L177.063 210.125C178.416 207.994 178.877 204.365 178.1 201.946L173.78 188.582C173.031 186.192 174.327 183.629 176.717 182.851L185.357 180.086C187.748 179.309 190.311 180.605 191.06 182.995L197.972 204.451C198.749 206.842 198.288 210.499 196.964 212.63Z" fill="#05A081"/>
</svg>
